<svg width="50" height="50" viewBox="0 0 50 50" fill="none" xmlns="http://www.w3.org/2000/svg">
<circle cx="25" cy="25" r="23.5" fill="white" stroke="#5C2E15" stroke-width="3"/>
<g clip-path="url(#clip0_183_500)">
<path d="M27.423 25.0003L35.6485 16.7744C35.8748 16.548 35.9996 16.2459 36 15.9237C36 15.6014 35.8752 15.299 35.6485 15.0729L34.9277 14.3523C34.7011 14.1253 34.399 14.001 34.0765 14.001C33.7546 14.001 33.4525 14.1253 33.2259 14.3523L25.0004 22.5776L16.7745 14.3523C16.5482 14.1253 16.246 14.001 15.9237 14.001C15.6017 14.001 15.2994 14.1253 15.0732 14.3523L14.352 15.0729C13.8827 15.5422 13.8827 16.3056 14.352 16.7744L22.5777 25.0003L14.352 33.2258C14.1256 33.4526 14.0009 33.7547 14.0009 34.0768C14.0009 34.3989 14.1256 34.701 14.352 34.9276L15.073 35.6483C15.2993 35.8751 15.6017 35.9995 15.9235 35.9995C16.2458 35.9995 16.5481 35.8751 16.7743 35.6483L25.0002 27.4228L33.2257 35.6483C33.4523 35.8751 33.7544 35.9995 34.0763 35.9995H34.0767C34.3988 35.9995 34.7009 35.8751 34.9275 35.6483L35.6484 34.9276C35.8746 34.7012 35.9995 34.3989 35.9995 34.0768C35.9995 33.7547 35.8746 33.4526 35.6484 33.2259L27.423 25.0003Z" fill="#5C2E15"/>
</g>
<defs>
<clipPath id="clip0_183_500">
<rect width="22" height="22" fill="white" transform="translate(14 14)"/>
</clipPath>
</defs>
</svg>
