<svg width="30" height="30" viewBox="0 0 30 30" fill="none" xmlns="http://www.w3.org/2000/svg">
<g clip-path="url(#clip0_183_504)">
<path d="M18.3041 15.0002L29.5207 3.78317C29.8293 3.47439 29.9995 3.06244 30 2.62317C30 2.18366 29.8298 1.77122 29.5207 1.46293L28.5378 0.480245C28.2288 0.170733 27.8168 0.0012207 27.3771 0.0012207C26.938 0.0012207 26.5261 0.170733 26.2171 0.480245L15.0005 11.6966L3.78341 0.480245C3.47488 0.170733 3.06268 0.0012207 2.62317 0.0012207C2.18415 0.0012207 1.77195 0.170733 1.46341 0.480245L0.48 1.46293C-0.16 2.10293 -0.16 3.1439 0.48 3.78317L11.6968 15.0002L0.48 26.2168C0.17122 26.5261 0.00121951 26.938 0.00121951 27.3773C0.00121951 27.8166 0.17122 28.2285 0.48 28.5376L1.46317 29.5202C1.77171 29.8295 2.18415 29.9993 2.62293 29.9993C3.06244 29.9993 3.47463 29.8295 3.78317 29.5202L15.0002 18.3037L26.2168 29.5202C26.5259 29.8295 26.9378 29.9993 27.3768 29.9993H27.3773C27.8166 29.9993 28.2285 29.8295 28.5376 29.5202L29.5205 28.5376C29.829 28.2288 29.9993 27.8166 29.9993 27.3773C29.9993 26.938 29.829 26.5261 29.5205 26.2171L18.3041 15.0002Z" fill="#5C2E15"/>
</g>
<defs>
<clipPath id="clip0_183_504">
<rect width="30" height="30" fill="white"/>
</clipPath>
</defs>
</svg>
