<svg width="32" height="32" viewBox="0 0 32 32" fill="none" xmlns="http://www.w3.org/2000/svg">
<path d="M9.3877 9.26367L19.1201 9.26562H19.1426L19.165 9.26953C20.0405 9.43131 20.648 10.1108 20.7188 10.998L20.7197 11.0088V11.0205C20.679 15.6081 20.7941 20.2438 20.6602 24.8369V24.8633L20.6533 24.8887C20.5697 25.2338 20.3558 25.5498 20.0889 25.7881C19.8219 26.0264 19.4835 26.2031 19.1318 26.248L19.0107 26.2637L18.9971 26.25H9.34375L9.31738 26.2441C8.4529 26.0608 7.83056 25.429 7.75391 24.5166L7.75293 24.5059V24.4951L7.75 11.0566V11.0469L7.76367 10.8799C7.86841 10.0571 8.50065 9.36851 9.35742 9.26562L9.37207 9.26367H9.3877ZM9.52246 10.8662C9.44926 10.8933 9.41935 10.9255 9.40137 10.9551C9.37543 10.9978 9.35564 11.0664 9.34473 11.1885L9.37793 24.5049C9.39156 24.549 9.41696 24.5743 9.45996 24.5967C9.51885 24.6273 9.60463 24.6464 9.7168 24.6572H18.7549C18.9287 24.6416 19.0001 24.6023 19.0352 24.5674C19.0706 24.532 19.1107 24.4591 19.126 24.2803V11.2676C19.1149 11.0982 19.0926 11.0017 19.0576 10.9453C19.0364 10.9111 18.998 10.8699 18.8682 10.8564L9.52246 10.8662Z" fill="#5C2E15" stroke="#5C2E15" stroke-width="0.5"/>
<path d="M22.5713 5.75L22.583 5.75098C23.2994 5.82033 23.9227 6.29029 24.166 6.9668L24.209 7.10449L24.2168 7.13281L24.2178 7.16309C24.3517 11.7563 24.2356 16.3919 24.2764 20.9795V20.9863C24.2671 21.4944 23.9988 21.9797 23.623 22.3086C23.2464 22.6382 22.7283 22.8391 22.2002 22.7197C21.8941 22.6506 21.7258 22.3859 21.6709 22.1445C21.6161 21.9033 21.6535 21.6035 21.8496 21.3945C21.9683 21.2681 22.106 21.2106 22.2246 21.1787C22.282 21.1633 22.3388 21.153 22.3848 21.1445C22.4338 21.1355 22.4707 21.1289 22.5049 21.1201C22.5702 21.1033 22.5965 21.0859 22.6133 21.0664C22.6318 21.0448 22.6653 20.9884 22.6807 20.8438L22.6816 7.74316C22.6662 7.52551 22.6342 7.45477 22.6074 7.4248C22.5859 7.40095 22.528 7.36023 22.3125 7.3418L13.2373 7.34277C13.0713 7.35963 13.0119 7.40424 12.9873 7.42969C12.9577 7.46045 12.9357 7.50755 12.9121 7.6084C12.8932 7.68959 12.8676 7.84745 12.8047 7.97754C12.7301 8.13173 12.6024 8.26254 12.3916 8.33496C12.0909 8.43794 11.8018 8.3792 11.5947 8.19336C11.3947 8.01375 11.2984 7.73977 11.3145 7.45508C11.3637 6.58451 12.0827 5.86224 12.9277 5.76172L12.9424 5.75977H12.957L22.5586 5.75H22.5713Z" fill="#5C2E15" stroke="#5C2E15" stroke-width="0.5"/>
</svg>
