<svg preserveAspectRatio="none" viewBox="0 0 1440 940" fill="none" xmlns="http://www.w3.org/2000/svg">
<path d="M0 586V260C91.5391 376.996 218 515 420.461 631.504C607.461 737.504 807.461 808.504 1058.96 823.504C1258.96 838.504 1440 795 1440 795V897C1440 897 1251.5 942 1058.96 939.004C866.422 936.008 602 901.591 376 804C160.5 710.943 0 586 0 586Z" fill="#FFE450"/>
<path d="M0 586V466C189.5 600.5 246 634.5 401 709.499C612.5 803.999 807.461 849.999 1058.96 864.999C1266.5 877.377 1440 838.999 1440 838.999V897C1440 897 1251.5 941.999 1058.96 939.003C866.422 936.007 602 901.59 376 803.999C160.5 710.942 0 586 0 586Z" fill="#C0B943"/>
<path d="M0 495V438C0 438 92.5 520.5 237 608.5C364.5 689.5 646 820.922 933 850C1169.5 883.5 1440 839 1440 839V840C1440 840 1249 892.994 933 867C623 841.5 348.5 731 119 581C45.5 532 0 495 0 495Z" fill="#00CBD3"/>
</svg>
