<svg preserveAspectRatio="none" viewBox="0 0 660 580" fill="none" xmlns="http://www.w3.org/2000/svg">
<path d="M0 337.604V184C41.9549 239.126 99.9155 304.151 192.709 359.045C278.416 408.99 370.082 442.444 485.351 449.511C577.017 456.579 659.992 436.081 659.992 436.081V484.141C659.992 484.141 573.597 505.344 485.351 503.932C397.105 502.521 275.913 486.304 172.331 440.322C73.5616 396.475 0 337.604 0 337.604Z" fill="#FFE450"/>
<path d="M0 337.604V281.062C86.8531 344.436 112.749 360.456 183.789 395.794C280.726 440.321 370.082 461.995 485.351 469.063C580.472 474.895 659.992 456.812 659.992 456.812V484.141C659.992 484.141 573.597 505.343 485.351 503.932C397.105 502.52 275.913 486.304 172.331 440.321C73.5616 396.474 0 337.604 0 337.604Z" fill="#C0B943"/>
<path d="M0.0078125 294.728V267.871C0.0078125 267.871 42.4031 306.743 108.632 348.207C167.068 386.373 296.088 448.296 427.628 461.997C536.022 477.781 660 456.814 660 456.814V457.285C660 457.285 572.459 482.255 427.628 470.007C285.546 457.992 159.735 405.927 54.5488 335.25C20.8617 312.162 0.0078125 294.728 0.0078125 294.728Z" fill="#00CBD3"/>
</svg>
