<svg width="93" height="93" viewBox="0 0 93 93" fill="none" xmlns="http://www.w3.org/2000/svg">
<g clip-path="url(#clip0_23_248)">
<path d="M46.5 0C20.8606 0 0 20.8606 0 46.5C0 72.1394 20.8606 93 46.5 93C72.1394 93 93 72.1394 93 46.5C93 20.8606 72.1394 0 46.5 0Z" fill="white"/>
<path d="M71.995 14.6494C66.3134 29.4131 51.2246 27.4992 40.5897 27.8723L38.0077 37.9415C51.1283 27.2464 68.4861 37.8512 66.6324 53.9932C65.3805 64.8629 57.6285 71.9769 49.4311 74.0232C40.4934 76.2501 30.5988 72.9158 26.157 63.8156C25.6876 62.8526 24.869 60.9267 24.556 59.8975L33.9812 57.478C34.1437 58.0197 34.4266 58.5433 34.7275 59.0248C41.0351 69.1963 53.8187 64.1105 55.2571 53.5599C56.7257 42.8226 41.661 37.1049 34.7938 49.6538L26.4399 46.0907L26.2954 46.0305L29.4071 33.5479C29.9006 31.327 31.3812 25.525 31.5557 24.9653C31.8205 24.0986 31.8807 23.8097 32.1756 23.0213C37.5322 8.94971 48.113 7.52932 57.5201 7.52932C57.8933 7.52932 58.2664 7.52932 58.6396 7.54135C54.8057 6.34966 50.7251 5.70567 46.5 5.70567C23.9602 5.69363 5.69363 23.9602 5.69363 46.5C5.69363 69.0398 23.9662 87.3064 46.5 87.3064C69.0338 87.3064 87.3064 69.0338 87.3064 46.5C87.3064 33.6141 81.3239 22.1305 71.995 14.6494Z" fill="#E52322"/>
<path d="M68.2754 11.8928C66.6925 16.8101 63.936 19.8976 59.6688 21.5588C55.227 23.2921 49.8283 23.3343 44.6041 23.3764C41.7934 23.4005 39.1031 23.4245 36.6415 23.7134C41.0772 13.0063 49.0339 11.947 57.5201 11.947C58.6998 11.947 59.8855 11.9711 61.029 11.9951C62.1725 12.0192 63.2559 12.0373 64.3332 12.0373C65.88 12.0373 67.15 11.9891 68.2754 11.8868" fill="#00923A"/>
</g>
<defs>
<clipPath id="clip0_23_248">
<rect width="93" height="93" fill="white"/>
</clipPath>
</defs>
</svg>
